G04 #@! TF.GenerationSoftware,KiCad,Pcbnew,(5.1.4)-1*
G04 #@! TF.CreationDate,2020-12-20T09:49:53+01:00*
G04 #@! TF.ProjectId,MonochromeRGB,4d6f6e6f-6368-4726-9f6d-655247422e6b,rev?*
G04 #@! TF.SameCoordinates,Original*
G04 #@! TF.FileFunction,Legend,Bot*
G04 #@! TF.FilePolarity,Positive*
%FSLAX46Y46*%
G04 Gerber Fmt 4.6, Leading zero omitted, Abs format (unit mm)*
G04 Created by KiCad (PCBNEW (5.1.4)-1) date 2020-12-20 09:49:53*
%MOMM*%
%LPD*%
G04 APERTURE LIST*
%ADD10C,0.120000*%
%ADD11C,0.150000*%
G04 APERTURE END LIST*
D10*
X109540040Y-137489240D02*
X110870040Y-137489240D01*
X110870040Y-137489240D02*
X110870040Y-136159240D01*
X108270040Y-137489240D02*
X108270040Y-134889240D01*
X108270040Y-134889240D02*
X110870040Y-134889240D01*
X110870040Y-134889240D02*
X110870040Y-111969240D01*
X105670040Y-111969240D02*
X110870040Y-111969240D01*
X105670040Y-137489240D02*
X105670040Y-111969240D01*
X105670040Y-137489240D02*
X108270040Y-137489240D01*
X190400940Y-137552740D02*
X191730940Y-137552740D01*
X191730940Y-137552740D02*
X191730940Y-136222740D01*
X189130940Y-137552740D02*
X189130940Y-134952740D01*
X189130940Y-134952740D02*
X191730940Y-134952740D01*
X191730940Y-134952740D02*
X191730940Y-112032740D01*
X186530940Y-112032740D02*
X191730940Y-112032740D01*
X186530940Y-137552740D02*
X186530940Y-112032740D01*
X186530940Y-137552740D02*
X189130940Y-137552740D01*
D11*
X109509725Y-139043682D02*
X109557344Y-139091301D01*
X109700201Y-139138920D01*
X109795440Y-139138920D01*
X109938297Y-139091301D01*
X110033535Y-138996063D01*
X110081154Y-138900825D01*
X110128773Y-138710349D01*
X110128773Y-138567492D01*
X110081154Y-138377016D01*
X110033535Y-138281778D01*
X109938297Y-138186540D01*
X109795440Y-138138920D01*
X109700201Y-138138920D01*
X109557344Y-138186540D01*
X109509725Y-138234159D01*
X108890678Y-138138920D02*
X108700201Y-138138920D01*
X108604963Y-138186540D01*
X108509725Y-138281778D01*
X108462106Y-138472254D01*
X108462106Y-138805587D01*
X108509725Y-138996063D01*
X108604963Y-139091301D01*
X108700201Y-139138920D01*
X108890678Y-139138920D01*
X108985916Y-139091301D01*
X109081154Y-138996063D01*
X109128773Y-138805587D01*
X109128773Y-138472254D01*
X109081154Y-138281778D01*
X108985916Y-138186540D01*
X108890678Y-138138920D01*
X108033535Y-139138920D02*
X108033535Y-138138920D01*
X107462106Y-139138920D01*
X107462106Y-138138920D01*
X106462106Y-139138920D02*
X107033535Y-139138920D01*
X106747820Y-139138920D02*
X106747820Y-138138920D01*
X106843059Y-138281778D01*
X106938297Y-138377016D01*
X107033535Y-138424635D01*
X190497625Y-139107182D02*
X190545244Y-139154801D01*
X190688101Y-139202420D01*
X190783340Y-139202420D01*
X190926197Y-139154801D01*
X191021435Y-139059563D01*
X191069054Y-138964325D01*
X191116673Y-138773849D01*
X191116673Y-138630992D01*
X191069054Y-138440516D01*
X191021435Y-138345278D01*
X190926197Y-138250040D01*
X190783340Y-138202420D01*
X190688101Y-138202420D01*
X190545244Y-138250040D01*
X190497625Y-138297659D01*
X189878578Y-138202420D02*
X189688101Y-138202420D01*
X189592863Y-138250040D01*
X189497625Y-138345278D01*
X189450006Y-138535754D01*
X189450006Y-138869087D01*
X189497625Y-139059563D01*
X189592863Y-139154801D01*
X189688101Y-139202420D01*
X189878578Y-139202420D01*
X189973816Y-139154801D01*
X190069054Y-139059563D01*
X190116673Y-138869087D01*
X190116673Y-138535754D01*
X190069054Y-138345278D01*
X189973816Y-138250040D01*
X189878578Y-138202420D01*
X189021435Y-139202420D02*
X189021435Y-138202420D01*
X188450006Y-139202420D01*
X188450006Y-138202420D01*
X188021435Y-138297659D02*
X187973816Y-138250040D01*
X187878578Y-138202420D01*
X187640482Y-138202420D01*
X187545244Y-138250040D01*
X187497625Y-138297659D01*
X187450006Y-138392897D01*
X187450006Y-138488135D01*
X187497625Y-138630992D01*
X188069054Y-139202420D01*
X187450006Y-139202420D01*
M02*
