M48
; DRILL file {KiCad (5.1.4)-1} date 20/12/2020 9:49:57
; FORMAT={-:-/ absolute / inch / decimal}
; #@! TF.CreationDate,2020-12-20T09:49:57+01:00
; #@! TF.GenerationSoftware,Kicad,Pcbnew,(5.1.4)-1
FMAT,2
INCH
T1C0.0157
T2C0.0197
T3C0.0276
T4C0.0315
T5C0.0354
T6C0.0394
T7C0.0433
T8C0.0472
T9C0.0472
T10C0.0492
T11C0.0510
T12C0.0591
T13C0.1260
T14C0.0315
T15C0.0510
T16C0.1181
%
G90
G05
T1
X4.2566Y-5.587
X4.9868Y-2.2838
X4.987Y-2.3428
X4.9872Y-2.4054
X5.2482Y-1.3062
X5.3088Y-1.393
X5.3808Y-2.4054
X5.4244Y-2.343
X5.4742Y-2.2838
X6.1654Y-1.7298
X6.2984Y-1.729
X7.9204Y-1.5232
T2
X3.206Y-3.8635
X3.2337Y-3.7967
X3.2337Y-3.9303
X3.3005Y-3.769
X3.3005Y-3.958
X3.3673Y-3.7967
X3.3673Y-3.9303
X3.395Y-3.8635
X8.214Y-3.8635
X8.2417Y-3.7967
X8.2417Y-3.9303
X8.3085Y-3.769
X8.3085Y-3.958
X8.3753Y-3.7967
X8.3753Y-3.9303
X8.403Y-3.8635
X8.2135Y-1.3195
X8.2412Y-1.2527
X8.2412Y-1.3863
X8.308Y-1.225
X8.308Y-1.414
X8.3748Y-1.2527
X8.3748Y-1.3863
X8.4025Y-1.3195
X3.202Y-1.319
X3.2297Y-1.2522
X3.2297Y-1.3858
X3.2965Y-1.2245
X3.2965Y-1.4135
X3.3633Y-1.2522
X3.3633Y-1.3858
X3.391Y-1.319
T3
X6.7986Y-4.2621
X6.9986Y-4.2621
X6.0571Y-4.2621
X6.2571Y-4.2621
X6.1806Y-2.9765
X6.3806Y-2.9765
X4.7086Y-4.2621
X4.9086Y-4.2621
X5.9832Y-5.3174
X6.1832Y-5.3174
X4.3926Y-4.2621
X4.5926Y-4.2621
X5.6287Y-5.3194
X5.8287Y-5.3194
X7.1156Y-4.2621
X7.3156Y-4.2621
X6.1811Y-3.132
X6.3811Y-3.132
X5.7421Y-4.2621
X5.9421Y-4.2621
X5.2748Y-3.1894
X5.4748Y-3.1894
X4.559Y-2.876
X4.759Y-2.876
X6.4811Y-4.2621
X6.6811Y-4.2621
X4.5615Y-3.1655
X4.7615Y-3.1655
X4.5594Y-2.7324
X4.7594Y-2.7324
X6.1806Y-3.4354
X6.3806Y-3.4354
X5.4221Y-4.2621
X5.6221Y-4.2621
X5.0266Y-4.2621
X5.2266Y-4.2621
X6.1796Y-3.2882
X6.3796Y-3.2882
X4.5602Y-3.018
X4.7602Y-3.018
T4
X6.1845Y-2.8204
X6.3814Y-2.8204
X6.5993Y-2.9774
X6.7962Y-2.9774
X5.692Y-2.989
X5.692Y-3.089
X5.692Y-3.189
X5.692Y-3.289
X5.992Y-2.989
X5.992Y-3.089
X5.992Y-3.189
X5.992Y-3.289
X7.0185Y-2.8945
X7.0185Y-3.1945
X5.2734Y-2.793
X5.4703Y-2.793
X4.6321Y-5.5376
X4.6321Y-5.636
X4.7108Y-5.5376
X4.7108Y-5.636
X4.7896Y-5.5376
X4.7896Y-5.636
X4.8683Y-5.5376
X4.8683Y-5.636
X4.9471Y-5.5376
X4.9471Y-5.636
X5.0258Y-5.5376
X5.0258Y-5.636
X6.8755Y-2.6632
X7.0724Y-2.6632
X7.6945Y-3.1785
X7.6945Y-3.4785
X5.2748Y-2.9892
X5.4717Y-2.9892
T5
X5.4506Y-5.5801
X6.8511Y-5.6256
X6.9298Y-5.6256
X7.0086Y-5.6256
X5.7866Y-5.6256
X5.8653Y-5.6256
X5.9441Y-5.6256
X6.3586Y-5.5801
X6.4586Y-5.5801
X5.3506Y-5.5801
T6
X4.2126Y-4.4606
X4.2126Y-4.5606
X4.2126Y-4.6606
X4.2126Y-4.7606
X4.2126Y-4.8606
X4.2126Y-4.9606
X4.2126Y-5.0606
X4.2126Y-5.1606
X4.2126Y-5.2606
X4.2126Y-5.3606
X4.3126Y-4.4606
X4.3126Y-4.5606
X4.3126Y-4.6606
X4.3126Y-4.7606
X4.3126Y-4.8606
X4.3126Y-4.9606
X4.3126Y-5.0606
X4.3126Y-5.1606
X4.3126Y-5.2606
X4.3126Y-5.3606
X6.7129Y-1.575
X6.758Y-1.4971
X6.758Y-1.653
X6.8031Y-1.575
X6.8482Y-1.4971
X6.8482Y-1.653
X6.8932Y-1.575
X6.9383Y-1.4971
X6.9383Y-1.653
X6.9834Y-1.575
X7.0285Y-1.4971
X7.0285Y-1.653
X7.0736Y-1.575
X7.1186Y-1.4971
X7.1186Y-1.653
X7.3961Y-4.4631
X7.3961Y-4.5631
X7.3961Y-4.6631
X7.3961Y-4.7631
X7.3961Y-4.8631
X7.3961Y-4.9631
X7.3961Y-5.0631
X7.3961Y-5.1631
X7.3961Y-5.2631
X7.3961Y-5.3631
X7.4961Y-4.4631
X7.4961Y-4.5631
X7.4961Y-4.6631
X7.4961Y-4.7631
X7.4961Y-4.8631
X7.4961Y-4.9631
X7.4961Y-5.0631
X7.4961Y-5.1631
X7.4961Y-5.2631
X7.4961Y-5.3631
X4.212Y-2.732
X4.212Y-2.832
X4.212Y-2.932
X4.212Y-3.032
X4.212Y-3.132
X4.212Y-3.232
X4.212Y-3.332
X4.212Y-3.432
X4.212Y-3.532
X4.212Y-3.632
X4.312Y-2.732
X4.312Y-2.832
X4.312Y-2.932
X4.312Y-3.032
X4.312Y-3.132
X4.312Y-3.232
X4.312Y-3.332
X4.312Y-3.432
X4.312Y-3.532
X4.312Y-3.632
X7.3985Y-2.7285
X7.3985Y-2.8285
X7.3985Y-2.9285
X7.3985Y-3.0285
X7.3985Y-3.1285
X7.3985Y-3.2285
X7.3985Y-3.3285
X7.3985Y-3.4285
X7.3985Y-3.5285
X7.3985Y-3.6285
X7.4985Y-2.7285
X7.4985Y-2.8285
X7.4985Y-2.9285
X7.4985Y-3.0285
X7.4985Y-3.1285
X7.4985Y-3.2285
X7.4985Y-3.3285
X7.4985Y-3.4285
X7.4985Y-3.5285
X7.4985Y-3.6285
X5.1129Y-1.575
X5.158Y-1.4971
X5.158Y-1.653
X5.2031Y-1.575
X5.2482Y-1.4971
X5.2482Y-1.653
X5.2932Y-1.575
X5.3383Y-1.4971
X5.3383Y-1.653
X5.3834Y-1.575
X5.4285Y-1.4971
X5.4285Y-1.653
X5.4736Y-1.575
X5.5186Y-1.4971
X5.5186Y-1.653
X7.7278Y-1.3954
X8.0092Y-1.3954
T7
X6.5534Y-3.2882
X6.8534Y-3.2882
X7.7278Y-1.2576
X8.0092Y-1.2576
X5.0422Y-2.889
X5.0422Y-3.189
X7.6935Y-2.68
X7.6935Y-2.98
X7.3945Y-2.4195
X7.6945Y-2.4195
X6.8688Y-2.4198
X7.1688Y-2.4198
T8
X3.4151Y-1.9165
X3.4151Y-2.0665
X3.4151Y-2.2165
X3.4151Y-2.3665
X3.4151Y-2.5165
X3.4151Y-2.6665
X3.4151Y-2.8165
X3.4151Y-2.9665
X3.4151Y-3.1165
X3.4151Y-3.2665
X3.6151Y-1.8415
X3.6151Y-1.9915
X3.6151Y-2.1415
X3.6151Y-2.2915
X3.6151Y-2.4415
X3.6151Y-2.5915
X3.6151Y-2.7415
X3.6151Y-2.8915
X3.6151Y-3.0415
X3.6151Y-3.1915
X3.6151Y-3.3415
X7.9664Y-1.8415
X7.9664Y-1.9915
X7.9664Y-2.1415
X7.9664Y-2.2915
X7.9664Y-2.4415
X7.9664Y-2.5915
X7.9664Y-2.7415
X7.9664Y-2.8915
X7.9664Y-3.0415
X7.9664Y-3.1915
X7.9664Y-3.3415
X8.1664Y-1.9165
X8.1664Y-2.0665
X8.1664Y-2.2165
X8.1664Y-2.3665
X8.1664Y-2.5165
X8.1664Y-2.6665
X8.1664Y-2.8165
X8.1664Y-2.9665
X8.1664Y-3.1165
X8.1664Y-3.2665
T9
X5.5551Y-4.6401
X5.5551Y-4.8811
X5.7256Y-4.4696
X5.7256Y-5.0516
X5.7418Y-4.7606
X5.9666Y-4.4696
X5.9666Y-5.0516
X6.1371Y-4.6401
X6.1371Y-4.8811
X6.6101Y-4.6371
X6.6101Y-4.8781
X6.7806Y-4.4666
X6.7806Y-5.0486
X6.7968Y-4.7576
X7.0216Y-4.4666
X7.0216Y-5.0486
X7.1921Y-4.6371
X7.1921Y-4.8781
X4.5211Y-4.6456
X4.5211Y-4.8866
X4.6916Y-4.4751
X4.6916Y-5.0571
X4.7078Y-4.7661
X4.9326Y-4.4751
X4.9326Y-5.0571
X5.1031Y-4.6456
X5.1031Y-4.8866
T10
X4.5691Y-5.4766
X5.0888Y-5.697
T11
X3.958Y-1.593
X4.058Y-1.593
X4.158Y-1.393
X4.258Y-1.593
X4.358Y-1.593
T12
X6.7684Y-5.6256
X7.0913Y-5.6256
X5.7039Y-5.6256
X6.0268Y-5.6256
T13
X4.8358Y-1.5971
X5.82Y-1.5971
X8.308Y-1.3195
X3.2965Y-1.319
X3.3005Y-3.8635
X6.4358Y-1.5971
X7.42Y-1.5971
X8.3085Y-3.8635
T14
X6.7977Y-4.1418
X6.8551Y-4.1418
X6.9125Y-4.1417
X6.9699Y-4.1417
X6.7977Y-3.9984
X6.8551Y-3.9984
X6.9125Y-3.9984
X6.9699Y-3.9984
X7.7898Y-1.3442
X7.9472Y-1.3442
X4.7063Y-3.9979
X4.7637Y-3.9979
X4.8211Y-3.998
X4.8785Y-3.998
X4.7063Y-4.1427
X4.7637Y-4.1427
X4.8211Y-4.1426
X4.8785Y-4.1426
T15
X3.958Y-1.293
X3.958Y-1.393
X4.158Y-1.593
X4.358Y-1.293
X4.358Y-1.393
T16
G00X3.3561Y-1.5482
M15
G01X3.3167Y-1.5482
M16
G05
G00X3.3561Y-3.6348
M15
G01X3.3167Y-3.6348
M16
G05
G00X8.2254Y-1.5482
M15
G01X8.2648Y-1.5482
M16
G05
G00X8.2254Y-3.6348
M15
G01X8.2648Y-3.6348
M16
G05
T0
M30
