G04 #@! TF.GenerationSoftware,KiCad,Pcbnew,(5.1.4)-1*
G04 #@! TF.CreationDate,2020-12-20T09:49:53+01:00*
G04 #@! TF.ProjectId,MonochromeRGB,4d6f6e6f-6368-4726-9f6d-655247422e6b,rev?*
G04 #@! TF.SameCoordinates,Original*
G04 #@! TF.FileFunction,Profile,NP*
%FSLAX46Y46*%
G04 Gerber Fmt 4.6, Leading zero omitted, Abs format (unit mm)*
G04 Created by KiCad (PCBNEW (5.1.4)-1) date 2020-12-20 09:49:53*
%MOMM*%
%LPD*%
G04 APERTURE LIST*
%ADD10C,0.100000*%
G04 APERTURE END LIST*
D10*
X83845400Y-101790500D02*
G75*
G02X80187800Y-98132900I0J3657600D01*
G01*
X80111601Y-33489901D02*
G75*
G02X83756499Y-29870401I3632199J-12699D01*
G01*
X211035465Y-29882743D02*
G75*
G02X214642699Y-33439101I435J-3607157D01*
G01*
X214731600Y-98120200D02*
G75*
G02X211035900Y-101815900I-3695700J0D01*
G01*
X104980740Y-145900140D02*
X104980740Y-104980740D01*
X192572640Y-145862040D02*
X104980740Y-145900140D01*
X192572640Y-104942640D02*
X192572640Y-145862040D01*
X83756499Y-29870401D02*
X211035901Y-29882743D01*
X80187800Y-98132900D02*
X80111601Y-33489901D01*
X214642699Y-33439101D02*
X214731600Y-98120200D01*
X177348508Y-104949261D02*
X192572640Y-104942640D01*
X177348525Y-101809173D02*
X211035900Y-101815900D01*
X177348508Y-104949261D02*
X177248800Y-104941618D01*
X177348525Y-101809173D02*
X177248819Y-101816840D01*
X177248800Y-104941618D02*
X177149974Y-104926333D01*
X177248819Y-101816840D02*
X177149997Y-101832148D01*
X177149974Y-104926333D02*
X177052615Y-104903497D01*
X177149997Y-101832148D02*
X177052644Y-101855007D01*
X177052615Y-104903497D02*
X176957299Y-104873245D01*
X177052644Y-101855007D02*
X176957336Y-101885282D01*
X176957299Y-104873245D02*
X176864590Y-104835756D01*
X176957336Y-101885282D02*
X176864637Y-101922793D01*
X176864590Y-104835756D02*
X176775037Y-104791252D01*
X176864637Y-101922793D02*
X176775096Y-101967318D01*
X176775037Y-104791252D02*
X176689170Y-104739996D01*
X176775096Y-101967318D02*
X176689242Y-102018594D01*
X176689170Y-104739996D02*
X176607497Y-104682291D01*
X176689242Y-102018594D02*
X176607583Y-102076318D01*
X176607497Y-104682291D02*
X176530501Y-104618479D01*
X176607583Y-102076318D02*
X176530603Y-102140148D01*
X176530501Y-104618479D02*
X176458638Y-104548937D01*
X176530603Y-102140148D02*
X176458757Y-102209706D01*
X176458638Y-104548937D02*
X176392333Y-104474077D01*
X176458757Y-102209706D02*
X176392470Y-102284581D01*
X176392333Y-104474077D02*
X176331978Y-104394342D01*
X176392470Y-102284581D02*
X176332134Y-102364330D01*
X176331978Y-104394342D02*
X176277930Y-104310204D01*
X176332134Y-102364330D02*
X176278107Y-102448481D01*
X176277930Y-104310204D02*
X176230509Y-104222160D01*
X176278107Y-102448481D02*
X176230708Y-102536536D01*
X176230509Y-104222160D02*
X176189996Y-104130731D01*
X176230708Y-102536536D02*
X176190218Y-102627974D01*
X176189996Y-104130731D02*
X176156631Y-104036458D01*
X176190218Y-102627974D02*
X176156876Y-102722254D01*
X176156631Y-104036458D02*
X176130611Y-103939899D01*
X176156876Y-102722254D02*
X176130880Y-102818818D01*
X176130611Y-103939899D02*
X176112090Y-103841626D01*
X176130880Y-102818818D02*
X176112383Y-102917095D01*
X176112090Y-103841626D02*
X176101178Y-103742220D01*
X176112383Y-102917095D02*
X176101495Y-103016503D01*
X176101178Y-103742220D02*
X176097939Y-103642269D01*
X176101495Y-103016503D02*
X176098280Y-103116454D01*
X176097939Y-103642269D02*
X176098280Y-103116454D01*
X172348437Y-101808173D02*
X172448140Y-101815880D01*
X172348475Y-104951437D02*
X172448176Y-104943707D01*
X172448140Y-101815880D02*
X172546956Y-101831228D01*
X172448176Y-104943707D02*
X172546988Y-104928336D01*
X172546956Y-101831228D02*
X172644300Y-101854126D01*
X172546988Y-104928336D02*
X172644326Y-104905415D01*
X172644300Y-101854126D02*
X172739596Y-101884439D01*
X172644326Y-104905415D02*
X172739614Y-104875080D01*
X172739596Y-101884439D02*
X172832280Y-101921987D01*
X172739614Y-104875080D02*
X172832288Y-104837510D01*
X172832280Y-101921987D02*
X172921804Y-101966548D01*
X172832288Y-104837510D02*
X172921800Y-104792928D01*
X172921804Y-101966548D02*
X173007638Y-102017859D01*
X172921800Y-104792928D02*
X173007620Y-104741597D01*
X173007638Y-102017859D02*
X173089274Y-102075616D01*
X173007620Y-104741597D02*
X173089240Y-104683821D01*
X173089274Y-102075616D02*
X173166229Y-102139477D01*
X173089240Y-104683821D02*
X173166178Y-104619942D01*
X173166229Y-102139477D02*
X173238048Y-102209064D01*
X173166178Y-104619942D02*
X173237978Y-104550338D01*
X173238048Y-102209064D02*
X173304306Y-102283966D01*
X173237978Y-104550338D02*
X173304215Y-104475421D01*
X173304306Y-102283966D02*
X173364611Y-102363739D01*
X173304215Y-104475421D02*
X173364497Y-104395634D01*
X173364611Y-102363739D02*
X173418606Y-102447911D01*
X173364497Y-104395634D02*
X173418468Y-104311449D01*
X173418606Y-102447911D02*
X173465971Y-102535984D01*
X173418468Y-104311449D02*
X173465808Y-104223365D01*
X173465971Y-102535984D02*
X173506426Y-102627437D01*
X173465808Y-104223365D02*
X173506237Y-104131903D01*
X173506426Y-102627437D02*
X173539732Y-102721729D01*
X173506237Y-104131903D02*
X173539516Y-104037604D01*
X173539732Y-102721729D02*
X173565692Y-102818302D01*
X173539516Y-104037604D02*
X173565448Y-103941026D01*
X173565692Y-102818302D02*
X173584152Y-102916585D01*
X173565448Y-103941026D02*
X173583880Y-103842740D01*
X173584152Y-102916585D02*
X173595003Y-103015996D01*
X173583880Y-103842740D02*
X173594703Y-103743328D01*
X173595003Y-103015996D02*
X173598181Y-103115947D01*
X173594703Y-103743328D02*
X173597853Y-103643378D01*
X173597853Y-103643378D02*
X173598181Y-103115947D01*
X124226903Y-104972368D02*
X172348475Y-104951437D01*
X119226957Y-104974544D02*
X104980740Y-104980740D01*
X124226903Y-101798564D02*
X172348437Y-101808173D01*
X119226967Y-101797564D02*
X83845400Y-101790500D01*
X124226903Y-104972368D02*
X124127195Y-104964725D01*
X124226903Y-101798564D02*
X124127197Y-101806231D01*
X124127195Y-104964725D02*
X124028369Y-104949440D01*
X124127197Y-101806231D02*
X124028375Y-101821539D01*
X124028369Y-104949440D02*
X123931010Y-104926604D01*
X124028375Y-101821539D02*
X123931022Y-101844398D01*
X123931010Y-104926604D02*
X123835694Y-104896352D01*
X123931022Y-101844398D02*
X123835714Y-101874673D01*
X123835694Y-104896352D02*
X123742985Y-104858863D01*
X123835714Y-101874673D02*
X123743015Y-101912184D01*
X123742985Y-104858863D02*
X123653432Y-104814359D01*
X123743015Y-101912184D02*
X123653474Y-101956709D01*
X123653432Y-104814359D02*
X123567565Y-104763103D01*
X123653474Y-101956709D02*
X123567620Y-102007985D01*
X123567565Y-104763103D02*
X123485892Y-104705398D01*
X123567620Y-102007985D02*
X123485961Y-102065709D01*
X123485892Y-104705398D02*
X123408896Y-104641586D01*
X123485961Y-102065709D02*
X123408981Y-102129539D01*
X123408896Y-104641586D02*
X123337033Y-104572044D01*
X123408981Y-102129539D02*
X123337135Y-102199097D01*
X123337033Y-104572044D02*
X123270728Y-104497184D01*
X123337135Y-102199097D02*
X123270848Y-102273972D01*
X123270728Y-104497184D02*
X123210373Y-104417449D01*
X123270848Y-102273972D02*
X123210512Y-102353721D01*
X123210373Y-104417449D02*
X123156325Y-104333311D01*
X123210512Y-102353721D02*
X123156485Y-102437872D01*
X123156325Y-104333311D02*
X123108904Y-104245267D01*
X123156485Y-102437872D02*
X123109086Y-102525927D01*
X123108904Y-104245267D02*
X123068391Y-104153838D01*
X123109086Y-102525927D02*
X123068596Y-102617365D01*
X123068391Y-104153838D02*
X123035026Y-104059565D01*
X123068596Y-102617365D02*
X123035254Y-102711645D01*
X123035026Y-104059565D02*
X123009006Y-103963006D01*
X123035254Y-102711645D02*
X123009258Y-102808209D01*
X123009006Y-103963006D02*
X122990485Y-103864733D01*
X123009258Y-102808209D02*
X122990761Y-102906486D01*
X122990485Y-103864733D02*
X122979573Y-103765327D01*
X122990761Y-102906486D02*
X122979873Y-103005894D01*
X122979573Y-103765327D02*
X122976334Y-103665376D01*
X122979873Y-103005894D02*
X122976658Y-103105845D01*
X122976334Y-103665376D02*
X122976658Y-103105845D01*
X119226967Y-101797564D02*
X119326670Y-101805271D01*
X119226957Y-104974544D02*
X119326658Y-104966814D01*
X119326670Y-101805271D02*
X119425486Y-101820619D01*
X119326658Y-104966814D02*
X119425470Y-104951443D01*
X119425486Y-101820619D02*
X119522830Y-101843517D01*
X119425470Y-104951443D02*
X119522808Y-104928522D01*
X119522830Y-101843517D02*
X119618126Y-101873830D01*
X119522808Y-104928522D02*
X119618096Y-104898187D01*
X119618126Y-101873830D02*
X119710810Y-101911378D01*
X119618096Y-104898187D02*
X119710770Y-104860617D01*
X119710810Y-101911378D02*
X119800334Y-101955939D01*
X119710770Y-104860617D02*
X119800282Y-104816035D01*
X119800334Y-101955939D02*
X119886168Y-102007250D01*
X119800282Y-104816035D02*
X119886102Y-104764704D01*
X119886168Y-102007250D02*
X119967804Y-102065007D01*
X119886102Y-104764704D02*
X119967722Y-104706928D01*
X119967804Y-102065007D02*
X120044759Y-102128868D01*
X119967722Y-104706928D02*
X120044660Y-104643049D01*
X120044759Y-102128868D02*
X120116578Y-102198455D01*
X120044660Y-104643049D02*
X120116460Y-104573445D01*
X120116578Y-102198455D02*
X120182836Y-102273357D01*
X120116460Y-104573445D02*
X120182697Y-104498528D01*
X120182836Y-102273357D02*
X120243141Y-102353130D01*
X120182697Y-104498528D02*
X120242979Y-104418741D01*
X120243141Y-102353130D02*
X120297136Y-102437302D01*
X120242979Y-104418741D02*
X120296950Y-104334556D01*
X120297136Y-102437302D02*
X120344501Y-102525375D01*
X120296950Y-104334556D02*
X120344290Y-104246472D01*
X120344501Y-102525375D02*
X120384956Y-102616828D01*
X120344290Y-104246472D02*
X120384719Y-104155010D01*
X120384956Y-102616828D02*
X120418262Y-102711120D01*
X120384719Y-104155010D02*
X120417998Y-104060711D01*
X120418262Y-102711120D02*
X120444222Y-102807693D01*
X120417998Y-104060711D02*
X120443930Y-103964133D01*
X120444222Y-102807693D02*
X120462682Y-102905976D01*
X120443930Y-103964133D02*
X120462362Y-103865847D01*
X120462682Y-102905976D02*
X120473533Y-103005387D01*
X120462362Y-103865847D02*
X120473185Y-103766435D01*
X120473533Y-103005387D02*
X120476711Y-103105338D01*
X120473185Y-103766435D02*
X120476335Y-103666485D01*
X120476335Y-103666485D02*
X120476711Y-103105338D01*
M02*
